<svg width="908" height="349" viewBox="0 0 908 349" fill="none" xmlns="http://www.w3.org/2000/svg">
<rect y="0.416748" width="91.3892" height="346.317" fill="#FF8600"/>
<path d="M242.948 236.939C242.537 233.929 241.238 231.397 239.049 229.345C236.859 227.293 234.123 225.651 230.84 224.42C227.693 223.188 224.136 222.368 220.168 221.957C216.337 221.41 212.506 221.136 208.675 221.136C195.13 221.136 184.459 224.215 176.66 230.371C170.23 235.57 165.373 242.48 162.089 251.099C158.942 259.718 157.369 269.159 157.369 279.42C157.369 289.134 158.737 297.685 161.474 305.073C164.347 312.324 168.246 318.413 173.171 323.338C178.097 328.264 183.911 332.026 190.615 334.626C197.456 337.088 204.844 338.32 212.78 338.32C218.389 338.32 224.82 337.567 232.071 336.062C239.459 334.42 246.437 331.342 253.004 326.827L255.056 329.085L250.541 338.32C243.7 342.014 236.86 344.75 230.019 346.529C223.315 348.17 216.337 348.991 209.086 348.991C198.824 348.991 189.521 347.35 181.175 344.066C172.829 340.782 165.646 336.131 159.627 330.111C153.743 323.954 149.16 316.703 145.876 308.357C142.593 299.874 140.951 290.502 140.951 280.241C140.951 270.664 142.388 261.634 145.261 253.151C148.271 244.532 152.649 237.075 158.395 230.782C164.278 224.488 171.461 219.494 179.944 215.8C188.563 212.106 198.551 210.259 209.907 210.259C212.369 210.259 215.242 210.396 218.526 210.67C221.946 210.807 225.504 211.149 229.198 211.696C232.892 212.243 236.654 212.996 240.485 213.953C244.316 214.774 248.01 215.869 251.567 217.237L252.183 219.084L249.515 237.759H243.564L242.948 236.939Z" fill="#D1D1D1"/>
<path d="M329.838 345.297C330.249 343.792 330.522 341.535 330.659 338.525C330.933 335.515 331.275 332.71 331.685 330.111L331.48 329.495C329.701 331.958 327.581 334.352 325.118 336.678C322.655 339.004 319.919 341.124 316.909 343.04C314.036 344.818 310.889 346.255 307.469 347.35C304.185 348.444 300.696 348.991 297.002 348.991C292.761 348.991 288.998 348.239 285.715 346.734C282.431 345.229 279.695 343.245 277.506 340.782C275.317 338.32 273.675 335.447 272.58 332.163C271.486 328.879 270.939 325.459 270.939 321.902C270.939 316.839 272.102 312.461 274.427 308.767C276.753 304.936 279.832 301.79 283.663 299.327C287.22 297.138 291.393 295.359 296.181 293.991C301.107 292.623 305.827 291.665 310.342 291.118C314.994 290.434 319.166 290.023 322.86 289.887C326.555 289.613 329.017 289.476 330.249 289.476H333.122C332.985 284.414 332.711 280.446 332.301 277.573C331.89 274.563 331.343 272.1 330.659 270.185C329.154 266.08 326.555 263.139 322.86 261.36C319.166 259.445 314.72 258.487 309.521 258.487C307.332 258.487 304.938 258.692 302.338 259.103C299.875 259.513 297.481 260.266 295.155 261.36C292.966 262.455 291.051 264.028 289.409 266.08C287.767 267.996 286.809 270.527 286.536 273.674L285.715 274.289H281.2L279.353 259.103L279.968 257.871C280.653 257.051 282.089 256.161 284.278 255.204C286.467 254.246 288.998 253.357 291.872 252.536C294.881 251.578 298.165 250.825 301.722 250.278C305.416 249.594 309.042 249.252 312.599 249.252C317.525 249.252 322.108 249.936 326.349 251.304C330.591 252.536 334.216 254.451 337.226 257.051C340.373 259.65 342.836 262.934 344.614 266.901C346.393 270.732 347.282 275.247 347.282 280.446C347.282 286.193 347.214 291.323 347.077 295.838C347.077 300.216 347.009 304.321 346.872 308.152C346.735 311.846 346.598 315.54 346.461 319.234C346.461 322.791 346.461 326.622 346.461 330.726C346.735 333.873 347.077 336.199 347.487 337.704C347.898 339.072 348.582 340.098 349.54 340.782C350.634 341.877 352.208 342.561 354.26 342.835C356.449 342.971 358.638 343.04 360.827 343.04L361.648 343.861L361.853 346.734L361.648 347.555C359.185 347.281 356.517 347.076 353.644 346.939C350.771 346.802 347.966 346.734 345.23 346.734C340.031 346.734 335.311 346.939 331.069 347.35L329.838 345.297ZM329.838 323.133C330.249 322.449 330.659 321.628 331.069 320.67C331.617 319.713 331.959 318.55 332.096 317.181L333.122 296.659H331.275C325.802 296.659 320.329 297.001 314.857 297.685C309.384 298.232 304.459 299.395 300.081 301.174C295.839 302.953 292.35 305.415 289.614 308.562C286.878 311.709 285.51 315.745 285.51 320.67C285.51 325.869 287.015 330.042 290.024 333.189C293.034 336.199 296.934 337.704 301.722 337.704C304.595 337.704 307.469 337.225 310.342 336.267C313.215 335.31 315.883 334.078 318.346 332.573C320.945 331.068 323.203 329.495 325.118 327.853C327.17 326.211 328.744 324.638 329.838 323.133Z" fill="#D1D1D1"/>
<path d="M370.492 197.535L371.313 196.714H375.007C377.333 196.714 380.274 196.714 383.832 196.714C387.389 196.578 390.467 196.304 393.067 195.894L400.455 194.867L401.686 196.714C401.412 197.262 401.207 198.288 401.07 199.793C400.934 201.161 400.797 202.666 400.66 204.308C400.523 205.95 400.386 207.523 400.25 209.028C400.25 210.533 400.25 211.696 400.25 212.517C400.113 214.706 399.976 216.758 399.839 218.674C399.839 220.589 399.771 222.846 399.634 225.446C399.634 228.045 399.634 231.192 399.634 234.886C399.634 238.58 399.634 243.3 399.634 249.047V293.786C399.634 299.532 399.634 304.252 399.634 307.946C399.771 311.64 399.839 314.787 399.839 317.387C399.976 319.986 400.044 322.244 400.044 324.159C400.181 326.075 400.318 328.264 400.455 330.726C400.728 333.599 401.002 335.789 401.276 337.294C401.686 338.662 402.439 339.825 403.533 340.782C404.628 341.74 406.133 342.356 408.048 342.629C410.1 342.903 412.153 343.04 414.205 343.04L415.231 344.066L415.641 346.734L415.231 347.555C414.273 347.555 412.837 347.486 410.921 347.35C409.006 347.213 406.954 347.076 404.764 346.939C402.575 346.939 400.523 346.871 398.608 346.734C396.692 346.734 395.256 346.734 394.298 346.734H391.425C390.467 346.734 388.962 346.734 386.91 346.734C384.994 346.871 382.942 346.939 380.753 346.939C378.701 347.076 376.649 347.213 374.596 347.35C372.681 347.486 371.244 347.555 370.287 347.555L370.081 346.734L370.287 343.861L371.108 343.04C373.297 343.04 375.417 342.971 377.47 342.835C379.659 342.561 381.3 341.877 382.395 340.782C383.489 339.825 384.174 338.593 384.447 337.088C384.858 335.583 385.2 333.463 385.473 330.726C385.61 328.948 385.679 327.169 385.679 325.39C385.815 323.612 385.884 321.56 385.884 319.234C386.021 316.771 386.089 313.966 386.089 310.82C386.089 307.536 386.089 303.5 386.089 298.711V249.457C386.089 243.848 386.089 239.128 386.089 235.297C386.089 231.329 386.021 227.909 385.884 225.035C385.884 222.162 385.815 219.631 385.679 217.442C385.679 215.253 385.61 213.064 385.473 210.875C385.337 209.37 384.926 208.07 384.242 206.976C383.695 205.881 383.216 205.06 382.805 204.513C381.437 203.008 379.727 202.05 377.675 201.64C375.623 201.229 373.502 201.024 371.313 201.024L370.492 200.203V197.535Z" fill="#D1D1D1"/>
<path d="M508.102 274.289L507.281 273.674C507.281 270.527 506.323 267.996 504.408 266.08C502.629 264.028 500.44 262.455 497.84 261.36C495.241 260.266 492.436 259.513 489.426 259.103C486.553 258.692 484.022 258.487 481.833 258.487C475.539 258.487 470.067 259.65 465.415 261.976C460.9 264.165 457.137 267.175 454.127 271.006C451.118 274.7 448.86 279.01 447.355 283.935C445.987 288.724 445.303 293.649 445.303 298.711C445.303 303.91 446.055 308.904 447.56 313.693C449.202 318.481 451.665 322.723 454.948 326.417C458.232 330.111 462.336 333.052 467.262 335.241C472.187 337.43 478.07 338.525 484.911 338.525C489.563 338.525 494.694 337.841 500.303 336.473C506.049 334.968 510.975 333.121 515.079 330.932L517.132 332.984L514.053 338.73C512.548 339.825 510.564 340.988 508.102 342.219C505.776 343.313 503.108 344.408 500.098 345.503C497.088 346.46 493.804 347.281 490.247 347.965C486.827 348.649 483.406 348.991 479.986 348.991C473.282 348.991 466.851 347.828 460.695 345.503C454.675 343.04 449.339 339.688 444.687 335.447C440.172 331.068 436.547 325.869 433.81 319.849C431.074 313.693 429.706 306.92 429.706 299.532C429.706 292.007 431.074 285.166 433.81 279.01C436.547 272.853 440.309 267.585 445.098 263.207C449.886 258.829 455.427 255.409 461.721 252.946C468.151 250.483 474.992 249.252 482.243 249.252C488.81 249.252 494.967 250.073 500.714 251.715C506.597 253.357 511.043 254.998 514.053 256.64L514.669 258.487L512.411 274.289H508.102Z" fill="#D1D1D1"/>
<path d="M612.928 329.085C609.371 334.831 604.788 339.619 599.178 343.45C593.706 347.144 586.933 348.991 578.861 348.991C574.893 348.991 571.062 348.512 567.368 347.555C563.811 346.734 560.459 345.297 557.312 343.245C554.302 341.193 551.703 338.456 549.514 335.036C547.325 331.616 545.751 327.306 544.794 322.107C544.11 318.55 543.767 314.856 543.767 311.025C543.904 307.057 543.904 303.089 543.767 299.122C543.767 297.343 543.699 294.949 543.562 291.939C543.562 288.792 543.562 285.645 543.562 282.498C543.562 279.215 543.562 276.205 543.562 273.469C543.562 270.732 543.562 268.748 543.562 267.517C543.562 266.012 543.22 264.712 542.536 263.618C541.852 262.386 541.305 261.497 540.894 260.95C539.526 259.445 537.816 258.556 535.764 258.282C533.711 257.871 531.591 257.666 529.402 257.666L528.786 256.845V253.972L529.402 253.357H533.096C535.422 253.357 538.363 253.357 541.92 253.357C545.478 253.22 548.556 252.946 551.156 252.536L558.338 251.51L559.57 253.357C559.296 253.904 559.091 254.93 558.954 256.435C558.817 257.803 558.681 259.308 558.544 260.95C558.407 262.592 558.338 264.165 558.338 265.67C558.338 267.175 558.338 268.338 558.338 269.159C558.338 271.485 558.27 274.084 558.133 276.957C558.133 279.694 558.065 282.498 557.928 285.372C557.928 288.245 557.86 290.981 557.723 293.581C557.723 296.18 557.723 298.369 557.723 300.148C557.723 303.158 557.791 306.578 557.928 310.409C558.202 314.103 558.68 317.318 559.365 320.055C560.733 326.485 563.538 331.274 567.779 334.42C572.02 337.567 576.946 339.141 582.555 339.141C586.796 339.141 590.696 338.32 594.253 336.678C597.81 334.899 600.888 332.779 603.488 330.316C606.224 327.853 608.413 325.254 610.055 322.517C611.834 319.644 612.997 317.045 613.544 314.719V288.04C613.544 285.166 613.476 282.772 613.339 280.857C613.339 278.804 613.27 277.026 613.134 275.521C613.134 274.016 613.065 272.648 612.928 271.416C612.928 270.185 612.86 268.885 612.723 267.517C612.449 266.012 612.039 264.712 611.492 263.618C611.081 262.386 610.671 261.566 610.26 261.155C608.892 259.513 607.182 258.556 605.13 258.282C603.077 257.871 600.957 257.666 598.768 257.666L597.947 256.845V253.972L598.768 253.357H602.462C604.788 253.357 607.729 253.357 611.286 253.357C614.844 253.22 617.854 252.946 620.316 252.536L627.499 251.51L628.731 253.357C628.457 253.904 628.252 254.93 628.115 256.435C627.978 257.803 627.841 259.308 627.704 260.95C627.568 262.592 627.499 264.165 627.499 265.67C627.499 267.175 627.499 268.338 627.499 269.159C627.499 270.253 627.431 271.28 627.294 272.237C627.294 273.195 627.294 274.358 627.294 275.726C627.294 277.094 627.226 278.736 627.089 280.651C627.089 282.43 627.089 284.824 627.089 287.834V310.82C627.089 313.829 627.089 316.292 627.089 318.208C627.226 320.123 627.294 321.765 627.294 323.133C627.431 324.501 627.499 325.801 627.499 327.032C627.636 328.127 627.704 329.358 627.704 330.726C627.978 333.873 628.32 336.199 628.731 337.704C629.141 339.072 629.825 340.098 630.783 340.782C631.877 341.877 633.451 342.561 635.503 342.835C637.692 342.971 639.881 343.04 642.07 343.04L642.891 343.861L643.302 346.734L642.891 347.555C640.428 347.281 637.761 347.076 634.887 346.939C632.014 346.802 629.209 346.734 626.473 346.734C621.274 346.734 616.554 346.939 612.313 347.35L611.081 345.297C611.492 343.519 611.902 341.193 612.313 338.32C612.86 335.446 613.27 332.505 613.544 329.495L612.928 329.085Z" fill="#D1D1D1"/>
<path d="M653.077 197.535L653.898 196.714H657.592C659.918 196.714 662.859 196.714 666.417 196.714C669.974 196.578 673.052 196.304 675.652 195.894L683.04 194.867L684.271 196.714C683.998 197.262 683.792 198.288 683.656 199.793C683.519 201.161 683.382 202.666 683.245 204.308C683.108 205.95 682.971 207.523 682.835 209.028C682.835 210.533 682.835 211.696 682.835 212.517C682.698 214.706 682.561 216.758 682.424 218.674C682.424 220.589 682.356 222.846 682.219 225.446C682.219 228.045 682.219 231.192 682.219 234.886C682.219 238.58 682.219 243.3 682.219 249.047V293.786C682.219 299.532 682.219 304.252 682.219 307.946C682.356 311.64 682.424 314.787 682.424 317.387C682.561 319.986 682.629 322.244 682.629 324.159C682.766 326.075 682.903 328.264 683.04 330.726C683.313 333.599 683.587 335.789 683.861 337.294C684.271 338.662 685.024 339.825 686.118 340.782C687.213 341.74 688.718 342.356 690.633 342.629C692.685 342.903 694.738 343.04 696.79 343.04L697.816 344.066L698.227 346.734L697.816 347.555C696.858 347.555 695.422 347.486 693.506 347.35C691.591 347.213 689.539 347.076 687.35 346.939C685.161 346.939 683.108 346.871 681.193 346.734C679.277 346.734 677.841 346.734 676.883 346.734H674.01C673.052 346.734 671.547 346.734 669.495 346.734C667.58 346.871 665.527 346.939 663.338 346.939C661.286 347.076 659.234 347.213 657.182 347.35C655.266 347.486 653.83 347.555 652.872 347.555L652.667 346.734L652.872 343.861L653.693 343.04C655.882 343.04 658.002 342.971 660.055 342.835C662.244 342.561 663.886 341.877 664.98 340.782C666.075 339.825 666.759 338.593 667.032 337.088C667.443 335.583 667.785 333.463 668.058 330.726C668.195 328.948 668.264 327.169 668.264 325.39C668.4 323.612 668.469 321.56 668.469 319.234C668.606 316.771 668.674 313.966 668.674 310.82C668.674 307.536 668.674 303.5 668.674 298.711V249.457C668.674 243.848 668.674 239.128 668.674 235.297C668.674 231.329 668.606 227.909 668.469 225.035C668.469 222.162 668.4 219.631 668.264 217.442C668.264 215.253 668.195 213.064 668.058 210.875C667.922 209.37 667.511 208.07 666.827 206.976C666.28 205.881 665.801 205.06 665.391 204.513C664.022 203.008 662.312 202.05 660.26 201.64C658.208 201.229 656.087 201.024 653.898 201.024L653.077 200.203V197.535Z" fill="#D1D1D1"/>
<path d="M791.097 329.085C787.54 334.831 782.957 339.619 777.347 343.45C771.874 347.144 765.102 348.991 757.03 348.991C753.062 348.991 749.231 348.512 745.537 347.555C741.98 346.734 738.628 345.297 735.481 343.245C732.471 341.193 729.872 338.456 727.683 335.036C725.494 331.616 723.92 327.306 722.963 322.107C722.278 318.55 721.936 314.856 721.936 311.025C722.073 307.057 722.073 303.089 721.936 299.122C721.936 297.343 721.868 294.949 721.731 291.939C721.731 288.792 721.731 285.645 721.731 282.498C721.731 279.215 721.731 276.205 721.731 273.469C721.731 270.732 721.731 268.748 721.731 267.517C721.731 266.012 721.389 264.712 720.705 263.618C720.021 262.386 719.474 261.497 719.063 260.95C717.695 259.445 715.985 258.556 713.933 258.282C711.88 257.871 709.76 257.666 707.571 257.666L706.955 256.845V253.972L707.571 253.357H711.265C713.591 253.357 716.532 253.357 720.089 253.357C723.647 253.22 726.725 252.946 729.324 252.536L736.507 251.51L737.739 253.357C737.465 253.904 737.26 254.93 737.123 256.435C736.986 257.803 736.849 259.308 736.713 260.95C736.576 262.592 736.507 264.165 736.507 265.67C736.507 267.175 736.507 268.338 736.507 269.159C736.507 271.485 736.439 274.084 736.302 276.957C736.302 279.694 736.234 282.498 736.097 285.372C736.097 288.245 736.029 290.981 735.892 293.581C735.892 296.18 735.892 298.369 735.892 300.148C735.892 303.158 735.96 306.578 736.097 310.409C736.371 314.103 736.849 317.318 737.533 320.055C738.902 326.485 741.706 331.274 745.948 334.42C750.189 337.567 755.114 339.141 760.724 339.141C764.965 339.141 768.864 338.32 772.422 336.678C775.979 334.899 779.057 332.779 781.657 330.316C784.393 327.853 786.582 325.254 788.224 322.517C790.003 319.644 791.166 317.045 791.713 314.719V288.04C791.713 285.166 791.644 282.772 791.508 280.857C791.508 278.804 791.439 277.026 791.302 275.521C791.302 274.016 791.234 272.648 791.097 271.416C791.097 270.185 791.029 268.885 790.892 267.517C790.618 266.012 790.208 264.712 789.661 263.618C789.25 262.386 788.84 261.566 788.429 261.155C787.061 259.513 785.351 258.556 783.299 258.282C781.246 257.871 779.126 257.666 776.937 257.666L776.116 256.845V253.972L776.937 253.357H780.631C782.957 253.357 785.898 253.357 789.455 253.357C793.013 253.22 796.023 252.946 798.485 252.536L805.668 251.51L806.9 253.357C806.626 253.904 806.421 254.93 806.284 256.435C806.147 257.803 806.01 259.308 805.873 260.95C805.737 262.592 805.668 264.165 805.668 265.67C805.668 267.175 805.668 268.338 805.668 269.159C805.668 270.253 805.6 271.28 805.463 272.237C805.463 273.195 805.463 274.358 805.463 275.726C805.463 277.094 805.395 278.736 805.258 280.651C805.258 282.43 805.258 284.824 805.258 287.834V310.82C805.258 313.829 805.258 316.292 805.258 318.208C805.395 320.123 805.463 321.765 805.463 323.133C805.6 324.501 805.668 325.801 805.668 327.032C805.805 328.127 805.873 329.358 805.873 330.726C806.147 333.873 806.489 336.199 806.9 337.704C807.31 339.072 807.994 340.098 808.952 340.782C810.046 341.877 811.62 342.561 813.672 342.835C815.861 342.971 818.05 343.04 820.239 343.04L821.06 343.861L821.471 346.734L821.06 347.555C818.597 347.281 815.929 347.076 813.056 346.939C810.183 346.802 807.378 346.734 804.642 346.734C799.443 346.734 794.723 346.939 790.482 347.35L789.25 345.297C789.661 343.519 790.071 341.193 790.482 338.32C791.029 335.446 791.439 332.505 791.713 329.495L791.097 329.085Z" fill="#D1D1D1"/>
<path d="M881.321 292.349C887.067 293.581 891.65 295.291 895.071 297.48C898.628 299.532 901.364 301.79 903.28 304.252C905.195 306.715 906.427 309.246 906.974 311.846C907.658 314.308 908 316.634 908 318.823C908 323.201 907.111 327.237 905.332 330.932C903.554 334.626 900.954 337.841 897.534 340.577C894.25 343.177 890.214 345.229 885.425 346.734C880.637 348.239 875.232 348.991 869.213 348.991C862.509 348.991 856.215 348.239 850.332 346.734C844.586 345.092 840.002 343.382 836.582 341.603L836.171 339.756L839.25 318.618H843.97L844.586 319.439C844.586 326.006 846.638 331.205 850.742 335.036C854.847 338.73 860.798 340.577 868.597 340.577C873.249 340.577 877.148 340.03 880.295 338.935C883.441 337.841 885.904 336.404 887.683 334.626C889.598 332.847 890.966 330.932 891.787 328.879C892.608 326.827 893.019 324.843 893.019 322.928C893.019 321.696 892.95 320.328 892.813 318.823C892.677 317.181 892.129 315.608 891.172 314.103C890.214 312.461 888.777 310.956 886.862 309.588C884.946 308.083 882.21 306.852 878.653 305.894L858.951 300.969C854.436 299.874 850.742 298.438 847.869 296.659C844.996 294.88 842.738 292.965 841.097 290.913C839.455 288.724 838.292 286.466 837.608 284.14C836.924 281.678 836.582 279.215 836.582 276.752C836.582 272.237 837.471 268.27 839.25 264.849C841.028 261.292 843.423 258.419 846.433 256.23C849.579 253.904 853.205 252.194 857.31 251.099C861.414 249.868 865.861 249.252 870.649 249.252C877.079 249.252 882.963 250.073 888.298 251.715C893.771 253.357 898.012 254.998 901.022 256.64L901.638 258.487L899.381 274.289H895.071L894.25 273.674C894.25 270.527 893.361 267.927 891.582 265.875C889.94 263.686 887.888 261.976 885.425 260.745C882.963 259.376 880.363 258.419 877.627 257.871C874.89 257.324 872.496 257.051 870.444 257.051C863.603 257.051 858.678 258.761 855.668 262.181C852.658 265.602 851.153 269.432 851.153 273.674C851.153 276.821 852.179 279.831 854.231 282.704C856.42 285.44 860.593 287.561 866.75 289.066L881.321 292.349Z" fill="#D1D1D1"/>
<path d="M136.026 91.1006C136.026 76.7348 138.899 63.9425 144.645 52.7235C150.528 41.5046 158.874 32.8167 169.683 26.66C180.491 20.3664 193.215 17.2196 207.854 17.2196C220.441 17.2196 231.66 19.6139 241.511 24.4025C251.499 29.0542 259.571 35.6899 265.728 44.3093C272.021 52.9287 276.194 62.9848 278.247 74.4774H230.224C228.035 69.6888 224.888 65.9947 220.784 63.3952C216.816 60.6589 212.232 59.2907 207.033 59.2907C199.372 59.2907 193.283 62.1639 188.768 67.9102C184.39 73.6565 182.201 81.3866 182.201 91.1006C182.201 100.815 184.39 108.545 188.768 114.291C193.283 120.037 199.372 122.91 207.033 122.91C212.232 122.91 216.816 121.611 220.784 119.011C224.888 116.275 228.035 112.512 230.224 107.724H278.247C276.194 119.216 272.021 129.272 265.728 137.892C259.571 146.511 251.499 153.215 241.511 158.004C231.66 162.656 220.441 164.982 207.854 164.982C193.215 164.982 180.491 161.903 169.683 155.746C158.874 149.453 150.528 140.697 144.645 129.478C138.899 118.259 136.026 105.466 136.026 91.1006Z" fill="#1A1A1A"/>
<path d="M370.994 69.552C375.645 62.8479 381.323 57.5121 388.027 53.5444C394.731 49.4399 401.709 47.3877 408.96 47.3877V96.026H396.031C387.412 96.026 381.05 97.531 376.945 100.541C372.978 103.551 370.994 108.887 370.994 116.548V163.955H325.434V48.2086H370.994V69.552Z" fill="#1A1A1A"/>
<path d="M445.859 106.082C445.859 93.9053 447.911 83.3704 452.016 74.4774C456.257 65.4475 462.003 58.6066 469.255 53.9549C476.506 49.1663 484.647 46.772 493.677 46.772C501.201 46.772 507.7 48.3454 513.173 51.4922C518.646 54.5021 522.818 58.675 525.692 64.0109V48.2086H571.046V163.955H525.692V148.153C522.818 153.489 518.646 157.73 513.173 160.877C507.7 163.887 501.201 165.392 493.677 165.392C484.647 165.392 476.506 163.066 469.255 158.414C462.003 153.626 456.257 146.785 452.016 137.892C447.911 128.862 445.859 118.259 445.859 106.082ZM525.692 106.082C525.692 99.9253 524.118 95.1367 520.971 91.7163C517.825 88.2958 513.789 86.5856 508.863 86.5856C503.938 86.5856 499.902 88.2958 496.755 91.7163C493.608 95.1367 492.035 99.9253 492.035 106.082C492.035 112.239 493.608 117.027 496.755 120.448C499.902 123.868 503.938 125.578 508.863 125.578C513.789 125.578 517.825 123.868 520.971 120.448C524.118 117.027 525.692 112.239 525.692 106.082Z" fill="#1A1A1A"/>
<path d="M616.132 106.082C616.132 94.0421 618.594 83.5757 623.52 74.6826C628.582 65.6527 635.56 58.7434 644.453 53.9549C653.483 49.1663 663.744 46.772 675.236 46.772C690.286 46.772 702.942 51.0133 713.203 59.4959C723.601 67.9786 730.168 79.7448 732.905 94.7946H684.677C682.898 88.7747 679.409 85.7647 674.21 85.7647C670.516 85.7647 667.575 87.4749 665.386 90.8954C663.333 94.3158 662.307 99.378 662.307 106.082C662.307 112.786 663.333 117.848 665.386 121.269C667.575 124.689 670.516 126.399 674.21 126.399C679.409 126.399 682.898 123.389 684.677 117.369H732.905C730.168 132.419 723.601 144.185 713.203 152.668C702.942 161.151 690.286 165.392 675.236 165.392C663.744 165.392 653.483 162.998 644.453 158.209C635.56 153.421 628.582 146.58 623.52 137.687C618.594 128.657 616.132 118.122 616.132 106.082Z" fill="#1A1A1A"/>
<path d="M852.217 163.955L823.691 117.78V163.955H778.131V12.089H823.691V91.511L852.628 48.2086H905.576L862.273 106.492L906.602 163.955H852.217Z" fill="#1A1A1A"/>
</svg>
